<svg width="512" height="512" xmlns="http://www.w3.org/2000/svg" xmlns:xlink="http://www.w3.org/1999/xlink" xml:space="preserve" overflow="hidden"><defs><clipPath id="clip0"><rect x="384" y="104" width="512" height="512"/></clipPath></defs><g clip-path="url(#clip0)" transform="translate(-384 -104)"><path d="M877.6 267C852.72 247.38 832.1 231.63 713.3 145.4 696.7 133.21 663.7 104 640.4 104L639.6 104C616.3 104 583.3 133.21 566.6 145.38 447.88 231.6 427.25 247.4 402.38 267 390.75 276 384 290 384 304.8L384 552C384 587.3 412.65 616 448 616L832 616C867.35 616 896 587.33 896 551.99L896 304.8C896 290 889.3 276 877.6 267ZM848 552C848 560.822 840.822 568 832 568L448 568C439.178 568 432 560.822 432 552L432 380.7 568.1 494.1C588.3 510.8 613.8 520 640 520 666.2 520 691.75 510.789 711.97 493.99L848 380.7 848 552ZM848 318.2 681.2 456.3C658.01 475.58 621.86 475.57 598.73 456.316L432 318.2 432.105 304.72C455.345 286.39 474.355 271.75 595.005 184.12 598.087 181.866 601.68 179.093 605.635 176.026 613.4 169.99 630.7 156.59 640 152.62 649.312 156.593 666.62 169.99 674.41 176.03 678.369 179.096 681.963 181.87 685.17 184.216 805.6 271.7 824.7 286.4 848 304.8L848 318.2Z" fill="#FFFFFF"/></g></svg>