<svg width="496" height="512" xmlns="http://www.w3.org/2000/svg" xmlns:xlink="http://www.w3.org/1999/xlink" xml:space="preserve" overflow="hidden"><defs><clipPath id="clip0"><rect x="392" y="104" width="496" height="512"/></clipPath></defs><g clip-path="url(#clip0)" transform="translate(-392 -104)"><path d="M557.9 501.4C557.9 503.4 555.6 505 552.7 505 549.4 505.3 547.1 503.7 547.1 501.4 547.1 499.4 549.4 497.8 552.3 497.8 555.3 497.5 557.9 499.1 557.9 501.4ZM526.8 496.9C526.1 498.9 528.1 501.2 531.1 501.8 533.7 502.8 536.7 501.8 537.3 499.8 537.9 497.8 536 495.5 533 494.6 530.4 493.9 527.5 494.9 526.8 496.9ZM571 495.2C568.1 495.9 566.1 497.8 566.4 500.1 566.7 502.1 569.3 503.4 572.3 502.7 575.2 502 577.2 500.1 576.9 498.1 576.6 496.2 573.9 494.9 571 495.2ZM636.8 112C498.1 112 392 217.3 392 356 392 466.9 461.8 561.8 561.5 595.2 574.3 597.5 578.8 589.6 578.8 583.1 578.8 576.9 578.5 542.7 578.5 521.7 578.5 521.7 508.5 536.7 493.8 491.9 493.8 491.9 482.4 462.8 466 455.3 466 455.3 443.1 439.6 467.6 439.9 467.6 439.9 492.5 441.9 506.2 465.7 528.1 504.3 564.8 493.2 579.1 486.6 581.4 470.6 587.9 459.5 595.1 452.9 539.2 446.7 482.8 438.6 482.8 342.4 482.8 314.9 490.4 301.1 506.4 283.5 503.8 277 495.3 250.2 509 215.6 529.9 209.1 578 242.6 578 242.6 598 237 619.5 234.1 640.8 234.1 662.1 234.1 683.6 237 703.6 242.6 703.6 242.6 751.7 209 772.6 215.6 786.3 250.3 777.8 277 775.2 283.5 791.2 301.2 801 315 801 342.4 801 438.9 742.1 446.6 686.2 452.9 695.4 460.8 703.2 475.8 703.2 499.3 703.2 533 702.9 574.7 702.9 582.9 702.9 589.4 707.5 597.3 720.2 595 820.2 561.8 888 466.9 888 356 888 217.3 775.5 112 636.8 112ZM489.2 456.9C487.9 457.9 488.2 460.2 489.9 462.1 491.5 463.7 493.8 464.4 495.1 463.1 496.4 462.1 496.1 459.8 494.4 457.9 492.8 456.3 490.5 455.6 489.2 456.9ZM478.4 448.8C477.7 450.1 478.7 451.7 480.7 452.7 482.3 453.7 484.3 453.4 485 452 485.7 450.7 484.7 449.1 482.7 448.1 480.7 447.5 479.1 447.8 478.4 448.8ZM510.8 484.4C509.2 485.7 509.8 488.7 512.1 490.6 514.4 492.9 517.3 493.2 518.6 491.6 519.9 490.3 519.3 487.3 517.3 485.4 515.1 483.1 512.1 482.8 510.8 484.4ZM499.4 469.7C497.8 470.7 497.8 473.3 499.4 475.6 501 477.9 503.7 478.9 505 477.9 506.6 476.6 506.6 474 505 471.7 503.6 469.4 501 468.4 499.4 469.7Z" fill="#FFFFFF"/></g></svg>