<svg width="448" height="512" xmlns="http://www.w3.org/2000/svg" xmlns:xlink="http://www.w3.org/1999/xlink" xml:space="preserve" overflow="hidden"><defs><clipPath id="clip0"><rect x="416" y="104" width="448" height="512"/></clipPath></defs><g clip-path="url(#clip0)" transform="translate(-416 -104)"><path d="M516.28 552 423.4 552 423.4 252.9 516.28 252.9ZM469.79 212.1C440.09 212.1 416 187.5 416 157.8 416 128.093 440.083 104.01 469.79 104.01 499.497 104.01 523.58 128.093 523.58 157.8 523.58 187.5 499.48 212.1 469.79 212.1ZM863.9 552 771.22 552 771.22 406.4C771.22 371.7 770.52 327.2 722.93 327.2 674.64 327.2 667.24 364.9 667.24 403.9L667.24 552 574.46 552 574.46 252.9 663.54 252.9 663.54 293.7 664.84 293.7C677.24 270.2 707.53 245.4 752.72 245.4 846.72 245.4 864 307.3 864 387.7L864 552Z" fill="#FFFFFF"/></g></svg>