<svg width="576" height="512" xmlns="http://www.w3.org/2000/svg" xmlns:xlink="http://www.w3.org/1999/xlink" xml:space="preserve" overflow="hidden"><defs><clipPath id="clip0"><rect x="352" y="104" width="576" height="512"/></clipPath></defs><g clip-path="url(#clip0)" transform="translate(-352 -104)"><path d="M737.2 271.6C743.6 271.6 749.8 271.9 756 272.7 739.4 194.3 655.3 136 559.7 136 452.5 136 365 208.8 365 301.4 365 354.8 394.3 398.9 442.9 433L423.6 491.6 491.6 457.5C516 462.3 535.4 467.2 559.8 467.2 566 467.2 571.9 466.9 578.1 466.4 574.1 453.5 571.9 439.8 571.9 425.6 571.8 340.7 644.8 271.6 737.2 271.6ZM632.7 218.7C647.2 218.7 656.9 228.4 656.9 243.1 656.9 257.6 647.2 267.3 632.7 267.3 617.9 267.3 603.4 257.6 603.4 243.1 603.5 228.4 618 218.7 632.7 218.7ZM496.3 267.3C481.8 267.3 467 257.6 467 243.1 467 228.3 481.8 218.7 496.3 218.7 511.1 218.7 520.7 228.4 520.7 243.1 520.7 257.7 511.1 267.3 496.3 267.3ZM915 423.4C915 345.5 837.1 282.1 749.6 282.1 656.9 282.1 584.2 345.5 584.2 423.4 584.2 501.3 657 564.7 749.6 564.7 768.9 564.7 788.5 559.6 808.2 554.8L861.6 584.1 846.8 535.5C886 506.1 915 467.2 915 423.4ZM695.9 398.9C686.2 398.9 676.6 389.2 676.6 379.3 676.6 369.6 686.3 360 695.9 360 710.7 360 720.3 369.7 720.3 379.3 720.3 389.3 710.6 398.9 695.9 398.9ZM803 398.9C793.3 398.9 783.7 389.2 783.7 379.3 783.7 369.6 793.4 360 803 360 817.5 360 827.4 369.7 827.4 379.3 827.5 389.3 817.5 398.9 803 398.9Z" fill="#FFFFFF"/></g></svg>